<mxfile host="app.diagrams.net" modified="2023-11-15T02:14:42.197Z" agent="Mozilla/5.0 (Android 12; Mobile; rv:109.0) Gecko/119.0 Firefox/119.0" version="22.0.0" etag="rZwn1K9NaZTH9EsEuKTR" type="github">
  <diagram name="Halaman-1" id="UgtpWyOiISOEQFbWm3Sg">
    <mxGraphModel>
      <root>
        <mxCell id="0" />
        <mxCell id="1" parent="0" />
      </root>
    </mxGraphModel>
  </diagram>
</mxfile>
